<?xml version="1.0" standalone="no"?>
<!DOCTYPE svg PUBLIC "-//W3C//DTD SVG 20010904//EN"
 "http://www.w3.org/TR/2001/REC-SVG-20010904/DTD/svg10.dtd">
<svg version="1.0" xmlns="http://www.w3.org/2000/svg"
 width="200.000000pt" height="200.000000pt" viewBox="0 0 200.000000 200.000000"
 preserveAspectRatio="xMidYMid meet">

<g transform="translate(0.000000,200.000000) scale(0.100000,-0.100000)"
fill="#000000" stroke="none">
<path d="M1152 1790 c-11 -12 -23 -38 -27 -58 -8 -46 -60 -139 -85 -152 -28
-15 -35 -13 -47 20 -6 17 -18 30 -26 30 -17 0 -42 -28 -51 -57 -7 -23 -143
-153 -160 -153 -5 0 -17 -6 -25 -14 -9 -7 -50 -28 -91 -46 -41 -18 -93 -45
-114 -61 -48 -35 -57 -35 -82 -8 -15 16 -18 33 -16 85 4 77 -6 94 -56 94 -31
0 -44 -9 -99 -67 -96 -101 -106 -116 -85 -125 5 -1 18 -30 29 -63 12 -33 31
-86 43 -118 17 -46 20 -64 12 -85 -18 -46 -42 -169 -42 -214 0 -133 61 -278
163 -384 78 -83 124 -117 212 -158 33 -15 67 -32 76 -36 9 -5 34 -11 55 -15
97 -15 154 -28 154 -36 0 -5 46 -9 101 -9 79 0 104 3 113 15 6 8 38 20 71 25
182 29 386 175 472 336 34 64 73 205 73 263 0 19 -10 73 -21 118 -23 91 -24
89 26 232 21 63 23 80 15 112 -16 57 -135 187 -173 189 -4 0 -18 -10 -31 -23
-22 -22 -23 -30 -18 -95 4 -68 4 -72 -16 -72 -12 0 -48 17 -79 37 -32 21 -70
43 -85 50 -26 11 -28 16 -28 77 0 80 -6 96 -35 96 -26 0 -31 19 -34 120 -2 67
-25 135 -54 158 -13 11 -18 10 -35 -8z m35 -222 c-7 -79 -31 -163 -54 -190
-29 -33 14 -52 53 -23 10 8 27 15 38 15 16 0 18 -5 13 -36 -3 -20 -13 -45 -22
-54 -17 -19 -17 -50 0 -52 6 0 15 10 22 23 18 35 55 60 70 47 19 -15 16 -36
-6 -48 -12 -6 -22 -26 -26 -50 -10 -59 -63 -81 -100 -40 -10 11 -23 20 -30 20
-7 0 -20 9 -30 20 -10 11 -26 20 -35 20 -10 0 -29 9 -43 20 -14 11 -37 20 -51
20 -15 0 -40 9 -55 21 -23 17 -44 21 -107 22 -44 0 -88 -1 -98 -4 -28 -6 -29
14 -2 31 67 41 139 95 175 130 26 25 43 35 47 28 4 -6 -1 -17 -10 -24 -26 -19
-16 -50 14 -46 29 3 155 123 191 182 39 63 53 53 46 -32z m-813 -205 c-14 -31
-13 -39 0 -67 8 -17 40 -55 71 -85 30 -30 55 -58 55 -63 0 -5 11 -13 25 -18
21 -8 25 -16 25 -50 0 -34 -6 -46 -32 -68 -41 -36 -66 -44 -105 -37 -37 7 -80
68 -113 162 -57 162 -55 148 -29 185 63 90 135 120 103 41z m1322 -119 c9 -34
-45 -174 -66 -174 -5 0 -19 18 -30 39 -15 31 -18 51 -14 88 4 26 11 56 16 65
6 12 2 30 -12 58 -11 22 -18 46 -14 52 8 13 112 -98 120 -128z m-958 14 c6
-13 13 -51 15 -86 5 -59 4 -64 -19 -74 -15 -7 -24 -20 -24 -33 0 -12 -11 -32
-25 -45 -20 -19 -25 -33 -25 -72 0 -67 50 -166 91 -181 16 -6 29 -17 29 -23 0
-7 6 -14 13 -17 22 -9 142 5 152 18 6 6 20 17 33 24 12 6 22 17 22 24 0 7 9
18 19 24 17 11 19 24 19 118 0 113 3 105 -56 168 -16 17 -16 19 1 28 21 12 22
32 2 49 -22 18 -18 30 8 30 12 0 28 -9 35 -20 7 -12 23 -20 40 -20 16 0 32 -8
40 -20 7 -11 18 -20 26 -20 7 0 21 -9 31 -20 10 -11 24 -20 31 -20 7 0 18 -8
23 -19 28 -51 76 -29 66 30 -5 31 -3 39 13 48 11 6 22 25 26 42 3 18 11 38 17
46 18 21 56 15 83 -14 l25 -27 -28 -32 c-30 -34 -33 -51 -35 -209 -1 -57 4
-77 23 -110 38 -63 58 -75 127 -75 53 0 62 3 67 20 4 14 14 20 32 20 25 0 27
-2 21 -32 -3 -18 -10 -58 -15 -89 -12 -71 -47 -142 -111 -218 -63 -75 -99 -84
-40 -10 22 28 40 59 40 68 0 9 7 26 15 37 8 10 15 27 15 37 0 9 9 25 20 34 20
17 27 48 13 56 -5 3 -29 8 -55 12 -45 7 -47 6 -63 -26 l-17 -32 -194 6 c-184
6 -196 7 -237 31 -51 30 -57 31 -125 11 -57 -17 -65 -31 -27 -45 15 -6 27 -20
30 -37 4 -15 10 -35 16 -43 5 -8 13 -24 18 -36 29 -65 111 -155 176 -194 32
-19 55 -24 115 -24 41 -1 76 -5 78 -10 5 -14 -128 -54 -208 -62 -41 -4 -85
-10 -97 -15 -31 -12 -253 34 -265 55 -6 10 -23 16 -47 16 -37 0 -68 19 -54 33
3 4 -8 7 -25 7 -21 0 -36 7 -44 20 -7 11 -21 20 -30 20 -10 0 -22 9 -28 20 -6
11 -21 22 -34 26 -13 3 -29 15 -35 27 -6 12 -27 41 -46 65 -21 26 -35 55 -35
70 0 16 -8 32 -20 40 -19 11 -20 23 -20 167 0 85 4 155 9 155 5 0 15 -10 23
-22 15 -22 18 -22 62 -10 25 6 54 12 64 12 19 0 51 31 88 85 27 41 32 100 9
109 -8 3 -15 12 -15 20 0 9 -10 24 -21 35 -27 25 -20 43 28 75 30 19 52 25 99
25 53 1 62 -2 72 -21z m90 -30 c-6 -18 -28 -21 -28 -4 0 9 7 16 16 16 9 0 14
-5 12 -12z m62 -64 c0 -11 -8 -14 -27 -12 -39 4 -42 28 -4 28 21 0 31 -5 31
-16z m66 -98 c40 -41 56 -101 47 -175 -10 -90 -91 -144 -189 -125 -19 3 -34
12 -34 20 0 7 -9 18 -20 24 -16 8 -19 17 -14 33 10 36 21 40 42 17 31 -33 68
-20 91 31 23 51 18 70 -30 114 -32 29 -44 34 -69 29 -33 -7 -36 -1 -17 39 11
26 15 27 86 27 71 0 75 -1 107 -34z m593 -5 c44 -34 61 -76 61 -155 0 -83 -5
-94 -45 -102 -61 -11 -99 35 -40 50 23 6 45 49 45 87 0 29 -59 89 -86 89 -30
0 -40 21 -24 50 13 25 38 20 89 -19z m-382 -467 c4 -11 -1 -22 -12 -31 -16
-11 -21 -11 -33 1 -8 8 -12 22 -9 30 8 21 46 21 54 0z m58 -14 c-5 -8 -11 -8
-17 -2 -6 6 -7 16 -3 22 5 8 11 8 17 2 6 -6 7 -16 3 -22z m248 24 c9 -9 -4
-35 -14 -28 -5 3 -9 12 -9 20 0 14 12 19 23 8z m-91 -266 c-6 -6 -16 -7 -22
-3 -9 6 -9 9 1 16 17 10 34 0 21 -13z"/>
<path d="M380 831 c0 -28 5 -53 10 -56 6 -4 10 15 10 49 0 31 -4 56 -10 56 -5
0 -10 -22 -10 -49z"/>
<path d="M1235 804 c-22 -23 -12 -58 28 -94 41 -38 82 -39 119 -3 33 31 40 96
12 107 -35 13 -142 6 -159 -10z"/>
<path d="M420 666 c0 -25 -4 -48 -10 -51 -15 -9 -12 -25 4 -25 23 0 38 102 16
115 -6 4 -10 -11 -10 -39z"/>
<path d="M461 527 c-6 -8 -8 -17 -4 -20 7 -8 33 11 33 24 0 13 -16 11 -29 -4z"/>
<path d="M530 446 c0 -8 7 -16 15 -20 10 -4 15 1 15 14 0 11 -7 20 -15 20 -8
0 -15 -6 -15 -14z"/>
</g>
</svg>
